# xmcd
#
# Track frame offsets:
#	150
#	12395
#	28862
#	38475
#	52925
#	71605
#	87247
#	111675
#	127212
#	147225
#	173622
#	201022
#	229742
#	264550
#	283635
#	309315
#
# Disc length: 4449
#
# Revision: 1
# Processed by: cddbd v1.5.1PL0 Copyright (c) Steve Scherf et al.
# Submitted via: CDex 1.51
# Normalized: r0:TDELIM( - )
#
DISCID=e3115f10
DTITLE=Jazz and Tzaz - 123 - Jazz Ballads and Dances
DYEAR=2003
DGENRE=Jazz
TTITLE0=Lionel Hampton with Coleman Hawkins - Fantanique
TTITLE1=Lionel Hampton with Coleman Hawkins - Tenderly
TTITLE2=Coleman Hawkins - Midnight Blues
TTITLE3=Earl Hines - Chicago
TTITLE4=Earl Hines - If I had You
TTITLE5=Earl Hines - One Night in Trinidad
TTITLE6=Lionel Hampton - Birth of the Blues
TTITLE7=Lionel Hampton - Jeepers Creepers
TTITLE8=Lionel Hampton - On the Sunny Side of the Street
TTITLE9=Lionel Hampton - I Can't Give You Anything but Love
TTITLE10=Lionel Hampton - Stompin' at the Savoy
TTITLE11=McCoy Tyner - You Taught My Heart to Sing
TTITLE12=Teddy Wilson - The Man I Love
TTITLE13=Woody Herman - Early Autumn
TTITLE14=Ahmad Jamal - Folks who Live on the Hill
TTITLE15=Ahmad Jamal - People
EXTD=YEAR: 2003
EXTT0=
EXTT1=
EXTT2=
EXTT3=
EXTT4=
EXTT5=
EXTT6=
EXTT7=
EXTT8=
EXTT9=
EXTT10=
EXTT11=
EXTT12=
EXTT13=
EXTT14=
EXTT15=
PLAYORDER=
